<?xml version="1.0" standalone="no"?>
<!DOCTYPE svg PUBLIC "-//W3C//DTD SVG 20010904//EN"
 "http://www.w3.org/TR/2001/REC-SVG-20010904/DTD/svg10.dtd">
<svg version="1.0" xmlns="http://www.w3.org/2000/svg"
 width="512.000000pt" height="512.000000pt" viewBox="0 0 512.000000 512.000000"
 preserveAspectRatio="xMidYMid meet">
<metadata>
Created by potrace 1.14, written by Peter Selinger 2001-2017
</metadata>
<g transform="translate(0.000000,512.000000) scale(0.100000,-0.100000)"
fill="#000000" stroke="none">
<path d="M761 4644 c-69 -19 -146 -69 -198 -128 -81 -92 -104 -173 -98 -341 2
-67 6 -127 9 -135 3 -8 8 -33 11 -55 8 -59 32 -144 66 -242 107 -306 354 -596
644 -759 55 -30 236 -109 258 -112 4 0 21 -4 38 -7 32 -7 32 -7 -21 -25 -67
-23 -98 -46 -137 -103 -56 -83 -55 -205 4 -286 47 -65 188 -150 301 -180 l41
-12 0 -97 c1 -198 27 -365 82 -538 21 -65 31 -120 33 -176 5 -123 48 -318 78
-355 12 -15 2 -20 -60 -28 -73 -9 -152 -30 -231 -62 -191 -76 -266 -165 -257
-304 7 -92 56 -167 141 -213 40 -21 42 -21 770 -21 490 0 742 4 765 11 22 6
48 7 70 2 58 -15 386 -16 511 -3 476 53 796 226 974 527 69 116 122 335 90
367 -10 10 -31 15 -118 26 -26 3 -58 10 -72 15 -14 5 -25 8 -25 5 0 -7 -133
45 -195 77 -64 33 -102 58 -151 99 l-31 26 46 82 c25 45 51 90 56 99 86 144
99 177 100 247 0 114 -51 192 -155 238 -38 17 -68 20 -207 21 -90 1 -163 2
-163 4 0 2 32 58 72 125 130 222 148 261 148 330 -1 102 -51 186 -138 229 -42
21 -65 24 -219 28 l-172 5 76 130 c144 248 146 252 146 319 1 104 -51 191
-139 236 -46 23 -59 24 -216 25 -105 0 -168 4 -168 10 0 6 34 66 75 135 125
212 140 245 139 320 -1 109 -58 193 -162 237 -29 13 -76 16 -214 17 l-177 1
-56 63 c-43 47 -76 71 -133 100 l-77 37 -850 2 c-719 1 -858 -1 -904 -13z"/>
</g>
</svg>
